<?xml version="1.0" standalone="no"?>
<!DOCTYPE svg PUBLIC "-//W3C//DTD SVG 20010904//EN"
 "http://www.w3.org/TR/2001/REC-SVG-20010904/DTD/svg10.dtd">
<svg version="1.0" xmlns="http://www.w3.org/2000/svg"
 width="960.000000pt" height="1280.000000pt" viewBox="0 0 960.000000 1280.000000"
 preserveAspectRatio="xMidYMid meet">
<g transform="translate(0.000000,1280.000000) scale(0.100000,-0.100000)"
fill="#000000" stroke="none">
<path d="M7970 9613 c-14 -9 -88 -77 -165 -152 -77 -75 -190 -181 -250 -235
-110 -100 -152 -139 -255 -239 -31 -30 -70 -61 -87 -70 -17 -9 -40 -32 -51
-51 -11 -19 -39 -44 -62 -56 -22 -11 -49 -35 -60 -53 -10 -18 -38 -46 -62 -63
-24 -17 -53 -45 -64 -62 -12 -17 -41 -46 -65 -64 -24 -19 -55 -50 -69 -70 -14
-21 -50 -55 -81 -77 -37 -27 -61 -53 -74 -82 -13 -28 -30 -46 -50 -55 -36 -15
-104 -80 -116 -111 -4 -13 -29 -32 -54 -44 -53 -25 -81 -57 -95 -109 -9 -32
-18 -42 -63 -63 -69 -34 -126 -91 -146 -147 -15 -41 -22 -47 -69 -64 -59 -21
-129 -93 -157 -160 -10 -23 -26 -40 -43 -47 -97 -35 -172 -99 -202 -173 -20
-47 -29 -57 -72 -77 -58 -27 -160 -130 -178 -180 -11 -31 -24 -42 -83 -70 -81
-39 -127 -86 -152 -155 -22 -59 -33 -70 -87 -78 -73 -12 -184 -111 -210 -189
-13 -38 -24 -47 -59 -47 -40 0 -139 -72 -179 -130 -19 -28 -43 -60 -53 -73
l-17 -22 -58 62 c-73 77 -101 127 -86 151 6 9 44 40 83 68 75 54 197 182 255
269 145 217 251 416 275 517 19 81 15 105 -20 124 -19 9 -41 13 -58 9 -37 -9
-192 -98 -286 -165 -44 -31 -102 -69 -130 -85 -151 -86 -223 -144 -348 -283
-70 -78 -136 -143 -146 -147 -11 -3 -37 2 -58 13 -96 48 -242 82 -356 82 l-69
0 7 53 c3 28 16 90 27 137 18 73 20 106 16 240 -7 200 -31 299 -93 374 -36 45
-46 51 -84 54 -63 5 -94 -12 -165 -90 -71 -76 -96 -127 -191 -395 -46 -130
-56 -171 -64 -261 -9 -97 -2 -221 14 -272 7 -22 -13 -38 -120 -95 -133 -71
-328 -198 -430 -279 -49 -40 -169 -126 -265 -191 -96 -65 -234 -162 -307 -217
-139 -103 -497 -437 -576 -536 -208 -260 -248 -318 -464 -667 -100 -161 -203
-367 -270 -535 -131 -331 -265 -597 -359 -710 -29 -36 -89 -103 -134 -150
l-80 -85 0 -1668 0 -1667 1768 2 1767 3 13 135 c23 238 7 605 -43 995 -8 61
-17 148 -20 195 -4 47 -20 184 -37 305 -16 121 -33 261 -38 310 -5 50 -19 169
-30 265 -26 222 -37 637 -21 815 7 84 20 161 38 217 31 102 28 101 158 68 85
-22 99 -31 242 -157 54 -47 137 -112 184 -144 98 -67 163 -122 301 -254 101
-97 137 -152 159 -241 19 -75 43 -125 83 -173 21 -25 49 -67 62 -94 44 -85 99
-136 203 -185 116 -54 206 -74 331 -74 136 0 182 20 292 124 78 74 93 95 142
195 30 61 72 160 92 220 21 59 51 127 67 149 26 37 29 52 34 140 7 124 -7 200
-53 290 -19 39 -48 108 -63 152 -21 59 -49 109 -103 184 -99 136 -117 168
-182 330 -106 260 -187 504 -268 808 -127 477 -138 520 -144 576 -6 50 -4 56
25 89 17 19 33 48 36 63 11 49 13 56 39 127 45 118 25 166 -148 365 -36 41
-66 81 -66 89 0 28 44 84 109 135 75 60 130 122 185 208 20 31 48 65 62 75 61
42 110 93 160 164 30 42 71 88 93 103 42 29 162 166 181 207 6 13 31 38 55 56
52 39 106 103 143 170 18 33 49 67 92 99 35 27 83 74 106 104 44 56 54 67 172
182 50 48 71 76 76 100 5 27 15 40 46 57 49 27 133 121 161 178 13 27 43 60
80 89 32 25 70 64 84 88 14 23 36 48 48 53 13 6 43 34 68 63 24 28 75 84 113
123 38 40 75 86 82 103 7 18 31 46 52 62 21 17 49 51 62 76 13 24 37 52 53 61
15 9 41 36 58 58 16 23 71 87 123 142 52 55 122 132 155 170 34 39 74 84 90
100 16 17 40 47 54 67 25 38 49 67 197 237 47 53 100 117 117 142 18 24 62 79
98 122 64 77 78 110 53 135 -17 17 -49 15 -78 -5z"/>
</g>
</svg>
